<?xml version="1.0" encoding="utf-8"?>
<!-- Generator: Adobe Illustrator 23.0.0, SVG Export Plug-In . SVG Version: 6.00 Build 0)  -->
<svg version="1.1" id="Layer_1" xmlns="http://www.w3.org/2000/svg" xmlns:xlink="http://www.w3.org/1999/xlink" x="0px" y="0px"
	 viewBox="0 0 3401.6 5102.4" style="enable-background:new 0 0 3401.6 5102.4;" xml:space="preserve">
<style type="text/css">
	.st0{fill:#B11116;}
</style>
<g>
	<g>
		<path class="st0" d="M1127.3,2811.5c-3.1-29.1-6.1-71.8-9.2-128.4v-346.1c0-56.5-10.6-100.8-31.8-132.9
			c-33.3-48.9-94.7-84.8-184.1-107.7h-2.8l2.8-0.9c89.4-22.9,150.8-58.8,184.1-107.7c21.2-32.1,31.8-76.4,31.8-132.9v-191.6
			c3-56.6,6.1-99.4,9.2-128.4c10.6-90.2,28.2-144.4,52.6-162.7H829.7c-19.9,22.9-33.6,56.9-41.2,101.9
			c-7.7,45-11.5,108.7-11.5,191.1v239.2c0,39.7-9.9,63.7-29.8,72.1c-19.9,8.3-47.3,12.6-82.3,12.6v-616.9H314.7v1602.2h350.2v-771.4
			c35,0,62.4,4.3,82.3,12.6c19.9,8.4,29.8,32.4,29.8,72.1v393.6c0,82.4,3.8,146.1,11.5,191.1c7.6,45,21.3,78.9,41.2,101.9h350.2
			C1155.5,2955.9,1137.9,2901.7,1127.3,2811.5z"/>
		<g>
			<g>
				<path class="st0" d="M2113.1,2719.7c0,96.9-38.5,171.4-115.5,223.9c-77,52.3-177.4,78.5-301.2,78.5
					c-123.9,0-224.7-25.4-302.5-76.2c-77.8-50.8-116.7-125.4-116.7-223.9v-1074c0-106.3,30.1-184.9,90.5-235.8
					c68.3-58.7,178.6-88.1,331-88.1c139.7,0,243.7,27.8,312,83.4c68.2,55.6,102.4,135,102.4,238.1V2719.7z M1758.3,2740.9V1600.7
					c0-17.5-4.9-30.3-14.8-38.3c-9.9-8-25.6-11.9-47.1-11.9c-21.4,0-37.5,4-48.2,11.9c-10.7,8-16.1,20.7-16.1,38.3v1140.3
					c0,16,5.4,28.3,16.1,37.1c10.7,8.8,26.8,13.1,48.2,13.1c21.4,0,37.2-4.4,47.1-13.1C1753.3,2769.2,1758.3,2756.9,1758.3,2740.9z"
					/>
			</g>
		</g>
		<g>
			<g>
				<path class="st0" d="M3149.4,2974.3h-350.2c-19.8-22.9-33.5-56.8-41.2-101.9c-7.6-45-11.4-108.7-11.4-191.1v-393.6
					c0-39.7-9.9-63.7-29.8-72.1c-19.9-8.4-47.3-12.6-82.3-12.6v771.4h-350.2V1372.1h434.9c115.9,0,206.4,25.8,271.2,77.5
					c64.8,51.6,97.3,120,97.3,205v191.3c0,53.2-8.4,94.2-25,123c-30.3,53.2-94,95.7-191,127.6c89.4,22.9,150.8,58.8,184.1,107.7
					c21.2,32.1,31.8,76.4,31.8,132.9v346.1c3,56.6,6.1,99.4,9.1,128.4C3107.4,2901.7,3124.9,2955.9,3149.4,2974.3z M2746.6,1921.9
					V1660c0-39.5-9.9-63.3-29.8-71.7c-19.9-8.3-47.3-12.5-82.3-12.5v430.3c36.6,0,60.5-2.3,71.6-6.9
					C2733,1987.2,2746.6,1961.3,2746.6,1921.9z"/>
			</g>
			<path class="st0" d="M2572.8,2974.3h-350.2c24.5-18.3,42-72.6,52.7-162.7c3.1-29.1,6.1-71.8,9.2-128.4V1663.2
				c-3.1-56.6-5.9-99.4-9.2-128.4c-10.1-90.2-28.2-144.4-52.7-162.7h165.2"/>
		</g>
	</g>
</g>
</svg>
